<svg width="51" height="54" viewBox="0 0 51 54" fill="none" xmlns="http://www.w3.org/2000/svg">
<g clip-path="url(#clip0)">
<path d="M25.5 49.0881L43.7143 38.5714V19.4062L25.5 26.4274V49.0881ZM23.6786 23.0223L43.5435 15.3683L23.6786 7.71426L3.81362 15.3683L23.6786 23.0223ZM47.3571 15.4285V38.5714C47.3571 39.2745 47.1864 39.9274 46.8449 40.5301C46.5033 41.1328 46.0385 41.6049 45.4503 41.9464L25.4146 53.5178C24.8834 53.8392 24.3047 53.9999 23.6786 53.9999C23.0525 53.9999 22.4738 53.8392 21.9425 53.5178L1.90681 41.9464C1.31864 41.6049 0.853795 41.1328 0.512277 40.5301C0.170759 39.9274 0 39.2745 0 38.5714V15.4285C0 14.625 0.218192 13.8917 0.654576 13.2288C1.09096 12.5658 1.66964 12.0937 2.39063 11.8125L22.4263 4.09819C22.8438 3.93747 23.2612 3.85712 23.6786 3.85712C24.096 3.85712 24.5134 3.93747 24.9308 4.09819L44.9665 11.8125C45.6875 12.0937 46.2662 12.5658 46.7026 13.2288C47.139 13.8917 47.3571 14.625 47.3571 15.4285Z" fill="#FAFAFA"/>
</g>
<defs>
<clipPath id="clip0">
<rect width="51" height="54" fill="white"/>
</clipPath>
</defs>
</svg>
