<svg class="svg-icon" style="width: 1em; height: 1em;vertical-align: middle;fill: currentColor;overflow: hidden;"
  viewBox="0 0 1024 1024" version="1.1" xmlns="http://www.w3.org/2000/svg">
  <path
    d="M512 930.857143l365.714286-199.428572V368L512 501.142857v429.714286z m-36.571429-494.285714l398.857143-145.142858-398.857143-145.142857-398.857142 145.142857z m475.428572-144v438.857142q0 20-10.285714 37.142858t-28 26.857142l-402.285715 219.428572q-16 9.142857-34.857143 9.142857t-34.857142-9.142857L38.285714 795.428571q-17.714286-9.714286-28-26.857142t-10.285714-37.142858V292.571429q0-22.857143 13.142857-41.714286t34.857143-26.857143l402.285714-146.285714q12.571429-4.571429 25.142857-4.571429t25.142858 4.571429l402.285714 146.285714q21.714286 8 34.857143 26.857143t13.142857 41.714286z" />
</svg>