<?xml version="1.0" encoding="UTF-8" standalone="no"?>
<svg
   id="svg905"
   class="svg-icon"
   style="width: 1em; height: 1em;vertical-align: middle;fill: currentColor;overflow: hidden;"
   viewBox="0 0 1024 1024"
   version="1.1" >
  <path
     d="M904 176v112H120V176h784m0-56H120c-30.9 0-56 25.1-56 56v112c0 30.9 25.1 56 56 56h784c30.9 0 56-25.1 56-56V176c0-30.9-25.1-56-56-56z"
     id="path883"
     style="fill:#bd9800;fill-opacity:1" />
  <path
     d="M820 232m-28 0a28 28 0 1 0 56 0 28 28 0 1 0-56 0Z"
     id="path885"
     style="fill:#bd9800;fill-opacity:1" />
  <path
     d="M708 232m-28 0a28 28 0 1 0 56 0 28 28 0 1 0-56 0Z"
     id="path887"
     style="fill:#bd9800;fill-opacity:1" />
  <path
     d="M904 456v112H120V456h784m0-56H120c-30.9 0-56 25.1-56 56v112c0 30.9 25.1 56 56 56h784c30.9 0 56-25.1 56-56V456c0-30.9-25.1-56-56-56z"
     id="path889"
     style="fill:#bd9800;fill-opacity:1" />
  <path
     d="M820 512m-28 0a28 28 0 1 0 56 0 28 28 0 1 0-56 0Z"
     id="path891"
     style="fill:#bd9800;fill-opacity:1" />
  <path
     d="M596 232m-28 0a28 28 0 1 0 56 0 28 28 0 1 0-56 0Z"
     id="path893"
     style="fill:#bd9800;fill-opacity:1" />
  <path
     d="M596 792m-28 0a28 28 0 1 0 56 0 28 28 0 1 0-56 0Z"
     id="path895"
     style="fill:#bd9800;fill-opacity:1" />
  <path
     d="M708 512m-28 0a28 28 0 1 0 56 0 28 28 0 1 0-56 0Z"
     id="path897"
     style="fill:#bd9800;fill-opacity:1" />
  <path
     d="M904 736v112H120V736h784m0-56H120c-30.9 0-56 25.1-56 56v112c0 30.9 25.1 56 56 56h784c30.9 0 56-25.1 56-56V736c0-30.9-25.1-56-56-56z"
     id="path899"
     style="fill:#bd9800;fill-opacity:1" />
  <path
     d="M820 792m-28 0a28 28 0 1 0 56 0 28 28 0 1 0-56 0Z"
     id="path901"
     style="fill:#bd9800;fill-opacity:1" />
  <path
     d="M708 792m-28 0a28 28 0 1 0 56 0 28 28 0 1 0-56 0Z"
     id="path903"
     style="fill:#bd9800;fill-opacity:1" />
</svg>
