<?xml version="1.0" encoding="UTF-8" standalone="no"?>
<svg
   class="svg-icon"
   style="width: 1em; height: 1em;vertical-align: middle;fill: currentColor;overflow: hidden;"
   viewBox="0 0 1024 1024"
   version="1.1">
  <path
     d="M128 960l0-896 576 0 192 192 0 704-768 0zM832 320l-192-192-448 0 0 768 640 0 0-576zM448 512l-192 0 0-256 192 0 0 256zM384 320l-64 0 0 128 64 0 0-128zM384 768l64 0 0 64-192 0 0-64 64 0 0-128-64 0 0-64 128 0 0 192zM640 448l64 0 0 64-192 0 0-64 64 0 0-128-64 0 0-64 128 0 0 192zM704 832l-192 0 0-256 192 0 0 256zM640 640l-64 0 0 128 64 0 0-128z"
     id="path843"
     style="fill:#5fd35f" />
</svg>
