<?xml version="1.0" encoding="UTF-8" standalone="no"?>
<svg
   xmlns:dc="http://purl.org/dc/elements/1.1/"
   xmlns:cc="http://creativecommons.org/ns#"
   xmlns:rdf="http://www.w3.org/1999/02/22-rdf-syntax-ns#"
   xmlns:svg="http://www.w3.org/2000/svg"
   xmlns="http://www.w3.org/2000/svg"
   xmlns:sodipodi="http://sodipodi.sourceforge.net/DTD/sodipodi-0.dtd"
   xmlns:inkscape="http://www.inkscape.org/namespaces/inkscape"
   class="svg-icon"
   style="width: 1em; height: 1em;vertical-align: middle;fill: currentColor;overflow: hidden;"
   viewBox="0 0 1024 1024"
   version="1.1"
   id="svg4"
   sodipodi:docname="rotationy.svg"
   inkscape:version="1.0.2-2 (e86c870879, 2021-01-15)">
  <metadata
     id="metadata10">
    <rdf:RDF>
      <cc:Work
         rdf:about="">
        <dc:format>image/svg+xml</dc:format>
        <dc:type
           rdf:resource="http://purl.org/dc/dcmitype/StillImage" />
      </cc:Work>
    </rdf:RDF>
  </metadata>
  <defs
     id="defs8" />
  <sodipodi:namedview
     pagecolor="#ffffff"
     bordercolor="#666666"
     borderopacity="1"
     objecttolerance="10"
     gridtolerance="10"
     guidetolerance="10"
     inkscape:pageopacity="0"
     inkscape:pageshadow="2"
     inkscape:window-width="1500"
     inkscape:window-height="975"
     id="namedview6"
     showgrid="false"
     inkscape:zoom="0.71777344"
     inkscape:cx="512"
     inkscape:cy="512"
     inkscape:window-x="-7"
     inkscape:window-y="-7"
     inkscape:window-maximized="1"
     inkscape:current-layer="svg4" />
  <path
     d="m 768.1237,512.1237 c 0,-243.2 -91.73334,-426.666669 -213.33334,-426.666669 -104.53333,0 -186.88,136.106669 -208.21333,328.959999 l -17.49333,-17.92 a 42.666667,42.666667 0 0 0 -60.58667,0 42.666667,42.666667 0 0 0 0,60.58667 l 85.33333,85.33333 a 42.666667,42.666667 0 0 0 14.08,8.96 42.666667,42.666667 0 0 0 32.42667,0 42.666667,42.666667 0 0 0 14.08,-8.96 L 499.75036,457.0837 A 42.841243,42.841243 0 0 0 439.1637,396.49703 l -4.69334,5.12 c 20.48,-145.49333 77.65334,-230.82667 120.32,-230.82667 52.05334,0 128,133.12 128,341.33334 0,208.21333 -75.94666,341.33333 -128,341.33333 -35.41333,0 -85.33333,-61.86667 -110.93333,-179.62667 A 42.666667,42.666667 0 0 0 393.0837,640.1237 42.666667,42.666667 0 0 0 360.23036,690.89703 c 34.13334,155.73333 106.66667,247.89333 194.56,247.89333 121.6,0 213.33334,-183.46666 213.33334,-426.66666 z"
     id="path2" />
</svg>
