<?xml version="1.0" encoding="UTF-8" standalone="no"?>
<svg
   xmlns:dc="http://purl.org/dc/elements/1.1/"
   xmlns:cc="http://creativecommons.org/ns#"
   xmlns:rdf="http://www.w3.org/1999/02/22-rdf-syntax-ns#"
   xmlns:svg="http://www.w3.org/2000/svg"
   xmlns="http://www.w3.org/2000/svg"
   xmlns:sodipodi="http://sodipodi.sourceforge.net/DTD/sodipodi-0.dtd"
   xmlns:inkscape="http://www.inkscape.org/namespaces/inkscape"
   class="svg-icon"
   style="width: 1em; height: 1em;vertical-align: middle;fill: currentColor;overflow: hidden;"
   viewBox="0 0 1024 1024"
   version="1.1"
   id="svg4"
   sodipodi:docname="rotationz.svg"
   inkscape:version="1.0.2-2 (e86c870879, 2021-01-15)">
  <metadata
     id="metadata10">
    <rdf:RDF>
      <cc:Work
         rdf:about="">
        <dc:format>image/svg+xml</dc:format>
        <dc:type
           rdf:resource="http://purl.org/dc/dcmitype/StillImage" />
      </cc:Work>
    </rdf:RDF>
  </metadata>
  <defs
     id="defs8" />
  <sodipodi:namedview
     pagecolor="#ffffff"
     bordercolor="#666666"
     borderopacity="1"
     objecttolerance="10"
     gridtolerance="10"
     guidetolerance="10"
     inkscape:pageopacity="0"
     inkscape:pageshadow="2"
     inkscape:window-width="1500"
     inkscape:window-height="975"
     id="namedview6"
     showgrid="false"
     inkscape:zoom="0.71777344"
     inkscape:cx="512"
     inkscape:cy="512"
     inkscape:window-x="-7"
     inkscape:window-y="-7"
     inkscape:window-maximized="1"
     inkscape:current-layer="svg4"
     inkscape:document-rotation="0" />
  <path
     d="M 719.90243,362.53784 C 577.8645,165.12592 396.25069,69.776862 297.54473,140.79583 212.69224,201.84722 225.34065,360.42217 320.6574,529.42582 l -24.66575,-4.32938 a 42.666667,42.666667 0 0 0 -49.17982,35.38489 42.666667,42.666667 0 0 0 35.38489,49.17981 l 119.10521,19.42947 a 42.666667,42.666667 0 0 0 16.66209,-0.95018 42.666667,42.666667 0 0 0 26.32159,-18.93839 42.666667,42.666667 0 0 0 6.19614,-15.49632 l 19.42946,-119.1052 a 42.841243,42.841243 0 0 0 -84.56469,-13.79493 l -0.81944,6.89712 c -68.3494,-130.0619 -71.77816,-232.72062 -37.14449,-257.63955 42.25308,-30.40111 181.64809,33.30024 303.2525,202.31256 121.6044,169.0123 137.70355,321.42506 95.45047,351.82616 -28.74595,20.68272 -105.3998,-0.38095 -194.95626,-81.01852 a 42.666667,42.666667 0 0 0 -60.90002,2.29293 42.666667,42.666667 0 0 0 2.9856,60.40165 c 118.66105,106.47774 231.36319,138.92428 302.70854,87.59128 98.70596,-71.01897 66.01694,-273.51946 -76.02099,-470.93138 z"
     id="path2" />
</svg>
